<mxfile host="app.diagrams.net" modified="2023-04-24T16:51:41.815Z" agent="Mozilla/5.0 (Macintosh; Intel Mac OS X 10_15_7) AppleWebKit/537.36 (KHTML, like Gecko) Chrome/112.0.0.0 Safari/537.36" etag="3FxxMdxEb-y7HfvrkV8Z" version="21.2.1" type="github">
  <diagram name="Page-1" id="wIpN7LzLHdpg10AdQmGY">
    <mxGraphModel dx="2044" dy="766" grid="1" gridSize="10" guides="1" tooltips="1" connect="1" arrows="1" fold="1" page="1" pageScale="1" pageWidth="850" pageHeight="1100" math="0" shadow="0">
      <root>
        <mxCell id="0" />
        <mxCell id="1" parent="0" />
        <mxCell id="SqZh74tkDrJfQ4-MDy7X-1" value="On the headline&amp;nbsp; you’ll find all the necessary information, like the home and more short cut to help you navigate easier." style="rounded=1;whiteSpace=wrap;html=1;" vertex="1" parent="1">
          <mxGeometry x="170" y="10" width="250" height="110" as="geometry" />
        </mxCell>
        <mxCell id="SqZh74tkDrJfQ4-MDy7X-4" value="The first paragraph is more information on the Services the they offer and more detailed." style="rounded=1;whiteSpace=wrap;html=1;" vertex="1" parent="1">
          <mxGeometry x="-140" y="320" width="370" height="80" as="geometry" />
        </mxCell>
        <mxCell id="SqZh74tkDrJfQ4-MDy7X-5" value="" style="endArrow=classic;startArrow=classic;html=1;rounded=0;exitX=0.5;exitY=0;exitDx=0;exitDy=0;" edge="1" parent="1" source="SqZh74tkDrJfQ4-MDy7X-4">
          <mxGeometry width="50" height="50" relative="1" as="geometry">
            <mxPoint x="250" y="440" as="sourcePoint" />
            <mxPoint x="290" y="220" as="targetPoint" />
            <Array as="points">
              <mxPoint x="45" y="220" />
              <mxPoint x="270" y="220" />
            </Array>
          </mxGeometry>
        </mxCell>
        <mxCell id="SqZh74tkDrJfQ4-MDy7X-6" value="On the second paragraph you’ll find how everything works starting form the promotion and and what makes them different from others.&amp;nbsp;" style="rounded=1;whiteSpace=wrap;html=1;" vertex="1" parent="1">
          <mxGeometry x="290" y="320" width="370" height="80" as="geometry" />
        </mxCell>
        <mxCell id="SqZh74tkDrJfQ4-MDy7X-7" value="" style="endArrow=classic;startArrow=classic;html=1;rounded=0;exitX=0.57;exitY=-0.037;exitDx=0;exitDy=0;exitPerimeter=0;" edge="1" parent="1" source="SqZh74tkDrJfQ4-MDy7X-6">
          <mxGeometry width="50" height="50" relative="1" as="geometry">
            <mxPoint x="240" y="360" as="sourcePoint" />
            <mxPoint x="290" y="220" as="targetPoint" />
            <Array as="points">
              <mxPoint x="500" y="220" />
            </Array>
          </mxGeometry>
        </mxCell>
        <mxCell id="SqZh74tkDrJfQ4-MDy7X-9" value="" style="endArrow=classic;html=1;rounded=0;entryX=0.5;entryY=1;entryDx=0;entryDy=0;" edge="1" parent="1" target="SqZh74tkDrJfQ4-MDy7X-1">
          <mxGeometry width="50" height="50" relative="1" as="geometry">
            <mxPoint x="290" y="220" as="sourcePoint" />
            <mxPoint x="290" y="160" as="targetPoint" />
            <Array as="points" />
          </mxGeometry>
        </mxCell>
        <mxCell id="SqZh74tkDrJfQ4-MDy7X-10" value="And at the bottom you’ll find how you can communicate or how to reach out and, also our social media ." style="rounded=1;whiteSpace=wrap;html=1;" vertex="1" parent="1">
          <mxGeometry x="120" y="460" width="300" height="60" as="geometry" />
        </mxCell>
        <mxCell id="SqZh74tkDrJfQ4-MDy7X-13" value="" style="endArrow=none;html=1;rounded=0;exitX=0.289;exitY=0.988;exitDx=0;exitDy=0;exitPerimeter=0;entryX=0.913;entryY=-0.067;entryDx=0;entryDy=0;entryPerimeter=0;" edge="1" parent="1" source="SqZh74tkDrJfQ4-MDy7X-6" target="SqZh74tkDrJfQ4-MDy7X-10">
          <mxGeometry width="50" height="50" relative="1" as="geometry">
            <mxPoint x="390" y="380" as="sourcePoint" />
            <mxPoint x="400" y="450" as="targetPoint" />
          </mxGeometry>
        </mxCell>
        <mxCell id="SqZh74tkDrJfQ4-MDy7X-14" value="" style="endArrow=none;html=1;rounded=0;exitX=0.15;exitY=-0.05;exitDx=0;exitDy=0;exitPerimeter=0;entryX=0.827;entryY=1.063;entryDx=0;entryDy=0;entryPerimeter=0;" edge="1" parent="1" source="SqZh74tkDrJfQ4-MDy7X-10" target="SqZh74tkDrJfQ4-MDy7X-4">
          <mxGeometry width="50" height="50" relative="1" as="geometry">
            <mxPoint x="390" y="380" as="sourcePoint" />
            <mxPoint x="160" y="410" as="targetPoint" />
          </mxGeometry>
        </mxCell>
      </root>
    </mxGraphModel>
  </diagram>
</mxfile>
